<?xml version="1.0" encoding="UTF-8"?>
<svg id="Layer_1" data-name="Layer 1" xmlns="http://www.w3.org/2000/svg" xmlns:xlink="http://www.w3.org/1999/xlink" version="1.1" viewBox="0 0 400 400">
  <defs>
    <style>
      .cls-1 {
        fill: #191818;
      }

      .cls-1, .cls-2, .cls-3, .cls-4, .cls-5 {
        stroke-width: 0px;
      }

      .cls-2 {
        fill: url(#linear-gradient);
      }

      .cls-3 {
        fill: url(#radial-gradient);
      }

      .cls-4 {
        fill: #000;
      }

      .cls-5 {
        fill: url(#linear-gradient-2);
      }
    </style>
    <linearGradient id="linear-gradient" x1="221.59" y1="141.36" x2="240.52" y2="185.1" gradientUnits="userSpaceOnUse">
      <stop offset="0" stop-color="#e6e7e8"/>
      <stop offset="1" stop-color="#bcbec0"/>
    </linearGradient>
    <linearGradient id="linear-gradient-2" x1="205.4" y1="154.03" x2="227.27" y2="156.65" xlink:href="#linear-gradient"/>
    <radialGradient id="radial-gradient" cx="190.3" cy="171.21" fx="190.3" fy="171.21" r="64.01" gradientUnits="userSpaceOnUse">
      <stop offset="0" stop-color="#ffd76b"/>
      <stop offset="1" stop-color="#99722d"/>
    </radialGradient>
  </defs>
  <g>
    <path class="cls-1" d="M75.95,269.13l4.36-9.62h1.36l4.37,9.62h-1.44l-3.89-8.85h.55l-3.89,8.85h-1.42ZM77.81,266.73l.37-1.1h5.41l.4,1.1h-6.18Z"/>
    <path class="cls-1" d="M99.46,269.24c-.73,0-1.43-.11-2.1-.34-.67-.22-1.2-.52-1.58-.87l.51-1.07c.37.32.83.59,1.4.8s1.16.32,1.77.32c.56,0,1.01-.06,1.36-.19.35-.13.6-.3.77-.53s.25-.48.25-.76c0-.33-.11-.6-.32-.8s-.49-.36-.84-.49c-.34-.12-.72-.23-1.13-.32s-.83-.2-1.24-.32c-.42-.12-.8-.28-1.14-.47-.34-.19-.62-.45-.83-.78-.21-.33-.32-.74-.32-1.26s.13-.95.39-1.37c.26-.42.66-.75,1.21-1,.54-.25,1.24-.38,2.08-.38.56,0,1.11.07,1.66.22.55.15,1.03.36,1.43.63l-.45,1.1c-.41-.27-.85-.47-1.31-.6-.46-.12-.9-.19-1.33-.19-.54,0-.98.07-1.33.21-.35.14-.6.32-.76.55-.16.23-.24.49-.24.77,0,.34.11.61.32.81.22.2.49.36.84.48.34.12.72.23,1.13.32.41.1.83.2,1.24.32s.8.27,1.14.47c.34.19.62.45.83.77.21.32.32.73.32,1.24s-.13.94-.4,1.35c-.27.42-.68.75-1.23,1s-1.25.38-2.1.38Z"/>
    <path class="cls-1" d="M111.92,269.24c-1.26,0-2.26-.36-2.98-1.09s-1.09-1.78-1.09-3.17v-5.47h1.37v5.41c0,1.07.24,1.85.71,2.35.47.49,1.14.74,2,.74s1.54-.25,2.01-.74c.47-.5.71-1.28.71-2.35v-5.41h1.33v5.47c0,1.39-.36,2.45-1.08,3.17s-1.72,1.09-2.99,1.09Z"/>
    <path class="cls-1" d="M121.56,269.13v-9.62h3.75c.84,0,1.56.13,2.16.4.6.27,1.05.65,1.37,1.15s.48,1.1.48,1.8-.16,1.29-.48,1.79c-.32.5-.78.88-1.37,1.15-.6.27-1.31.41-2.16.41h-3l.62-.65v3.56h-1.37ZM122.93,265.71l-.62-.69h2.95c.88,0,1.55-.19,2-.56.45-.38.68-.91.68-1.59s-.23-1.22-.68-1.59-1.12-.56-2-.56h-2.95l.62-.69v5.69Z"/>
    <path class="cls-1" d="M135.46,267.94h5.61v1.2h-6.98v-9.62h6.79v1.2h-5.41v7.23ZM135.34,263.67h4.95v1.17h-4.95v-1.17Z"/>
    <path class="cls-1" d="M146.04,269.13v-9.62h3.75c.84,0,1.56.13,2.16.4.6.27,1.05.65,1.37,1.15s.48,1.1.48,1.8-.16,1.29-.48,1.79c-.32.5-.78.88-1.37,1.15-.6.27-1.31.4-2.16.4h-3l.62-.63v3.56h-1.37ZM147.42,265.71l-.62-.67h2.95c.88,0,1.55-.19,2-.57.45-.38.68-.91.68-1.6s-.23-1.22-.68-1.59-1.12-.56-2-.56h-2.95l.62-.69v5.69ZM152.47,269.13l-2.45-3.49h1.47l2.47,3.49h-1.5Z"/>
    <path class="cls-1" d="M158.78,269.13v-9.62h1.13l6.36,7.9h-.59v-7.9h1.37v9.62h-1.13l-6.36-7.9h.59v7.9h-1.37Z"/>
    <path class="cls-1" d="M177.03,269.24c-.73,0-1.41-.12-2.04-.37-.63-.25-1.17-.59-1.63-1.04-.46-.44-.82-.96-1.07-1.56-.26-.59-.38-1.25-.38-1.95s.13-1.36.38-1.95c.26-.59.61-1.11,1.07-1.56.46-.44,1-.79,1.62-1.04s1.31-.37,2.05-.37,1.41.12,2.03.36c.62.24,1.16.59,1.62,1.03.46.45.82.96,1.07,1.56.25.6.38,1.25.38,1.96s-.13,1.37-.38,1.96c-.25.6-.61,1.12-1.07,1.56-.46.45-1,.79-1.62,1.03-.62.24-1.29.36-2.03.36ZM177.03,268.02c.53,0,1.02-.09,1.48-.27.45-.18.85-.44,1.18-.78s.6-.73.78-1.17c.19-.45.28-.94.28-1.47s-.09-1.02-.28-1.47c-.19-.45-.45-.84-.78-1.17s-.73-.59-1.18-.78c-.45-.18-.95-.27-1.48-.27s-1.04.09-1.49.27-.85.44-1.19.78c-.34.33-.6.73-.79,1.17-.19.45-.28.94-.28,1.47s.09,1.02.28,1.47c.19.45.45.84.79,1.17.34.33.73.59,1.19.78s.95.27,1.49.27Z"/>
    <path class="cls-1" d="M189.45,269.13l-4.23-9.62h1.48l3.89,8.88h-.85l3.92-8.88h1.37l-4.22,9.62h-1.36Z"/>
    <path class="cls-1" d="M197.24,269.13l4.35-9.62h1.36l4.37,9.62h-1.44l-3.89-8.85h.55l-3.89,8.85h-1.42ZM199.09,266.73l.37-1.1h5.41l.4,1.1h-6.18Z"/>
    <path class="cls-1" d="M220.75,269.24c-.73,0-1.43-.11-2.1-.34s-1.2-.52-1.58-.87l.51-1.07c.37.32.83.59,1.4.8.57.21,1.16.32,1.77.32.56,0,1.01-.06,1.36-.19.35-.13.6-.3.77-.53.16-.22.25-.48.25-.76,0-.33-.11-.6-.32-.8s-.49-.36-.84-.49c-.34-.12-.72-.23-1.13-.32s-.83-.2-1.24-.32c-.42-.12-.8-.28-1.14-.47s-.62-.45-.83-.78c-.21-.33-.32-.74-.32-1.26s.13-.95.39-1.37c.26-.42.66-.75,1.21-1s1.24-.38,2.08-.38c.56,0,1.11.07,1.66.22.55.15,1.03.36,1.43.63l-.45,1.1c-.41-.27-.85-.47-1.3-.6-.46-.12-.9-.19-1.33-.19-.54,0-.99.07-1.33.21-.35.14-.6.32-.76.55-.16.23-.24.49-.24.77,0,.34.11.61.32.81.21.2.49.36.84.48s.72.23,1.13.32c.41.1.83.2,1.24.32s.8.27,1.14.47.62.45.83.77c.21.32.32.73.32,1.24s-.13.94-.4,1.35c-.27.42-.68.75-1.23,1-.55.25-1.25.38-2.09.38Z"/>
    <path class="cls-1" d="M231,269.13v-8.42h-3.3v-1.2h7.96v1.2h-3.3v8.42h-1.36Z"/>
    <path class="cls-1" d="M237.97,269.13l4.36-9.62h1.36l4.37,9.62h-1.44l-3.89-8.85h.55l-3.89,8.85h-1.42ZM239.82,266.73l.37-1.1h5.41l.4,1.1h-6.18Z"/>
    <path class="cls-1" d="M252.23,269.13v-9.62h3.75c.84,0,1.56.13,2.16.4.59.27,1.05.65,1.37,1.15.32.5.48,1.1.48,1.8s-.16,1.29-.48,1.79c-.32.5-.78.88-1.37,1.15-.6.27-1.32.4-2.16.4h-3l.62-.63v3.56h-1.37ZM253.6,265.71l-.62-.67h2.95c.88,0,1.55-.19,2-.57.45-.38.68-.91.68-1.6s-.23-1.22-.68-1.59c-.45-.38-1.12-.56-2-.56h-2.95l.62-.69v5.69ZM258.66,269.13l-2.45-3.49h1.47l2.47,3.49h-1.5Z"/>
    <path class="cls-1" d="M274.21,269.24c-.73,0-1.43-.11-2.1-.34s-1.2-.52-1.58-.87l.51-1.07c.37.32.83.59,1.4.8.57.21,1.16.32,1.77.32.56,0,1.01-.06,1.36-.19.35-.13.6-.3.77-.53.16-.22.25-.48.25-.76,0-.33-.11-.6-.32-.8s-.49-.36-.84-.49c-.34-.12-.72-.23-1.13-.32s-.83-.2-1.24-.32c-.42-.12-.8-.28-1.14-.47s-.62-.45-.83-.78c-.21-.33-.32-.74-.32-1.26s.13-.95.39-1.37c.26-.42.66-.75,1.21-1s1.24-.38,2.08-.38c.56,0,1.11.07,1.66.22.55.15,1.03.36,1.43.63l-.45,1.1c-.41-.27-.85-.47-1.3-.6-.46-.12-.9-.19-1.33-.19-.54,0-.99.07-1.33.21-.35.14-.6.32-.76.55-.16.23-.24.49-.24.77,0,.34.11.61.32.81.21.2.49.36.84.48s.72.23,1.13.32c.41.1.83.2,1.24.32s.8.27,1.14.47.62.45.83.77c.21.32.32.73.32,1.24s-.13.94-.4,1.35c-.27.42-.68.75-1.23,1-.55.25-1.25.38-2.09.38Z"/>
    <path class="cls-1" d="M282.69,269.13v-9.62h1.13l4.31,7.27h-.6l4.26-7.27h1.13v9.62s-1.31,0-1.31,0v-7.54s.3,0,.3,0l-3.79,6.38h-.63l-3.82-6.38h.34v7.54h-1.32Z"/>
    <path class="cls-1" d="M298.56,269.13v-9.62h1.37v9.62h-1.37Z"/>
    <path class="cls-1" d="M305.57,269.13v-9.62h1.37v8.42h5.21v1.2h-6.58Z"/>
    <path class="cls-1" d="M317.85,267.94h5.61v1.2h-6.98v-9.62h6.79v1.2h-5.41v7.23ZM317.73,263.67h4.95v1.17h-4.95v-1.17Z"/>
  </g>
  <path class="cls-4" d="M36.54,246.99c.33.03.66.04.99.04,1.33,0,2.45-.24,3.35-.72.29-.1.6-.34.96-.72.35-.37.66-.76.91-1.16.26-.4.44-.83.52-1.29.08-.45.11-.85.07-1.15-.06-1.05-.5-2.01-1.31-2.86h0c-.76-.82-2.18-1.85-4.22-3.07-1.31-.81-2.21-1.49-2.67-2.02-.5-.58-.72-1.22-.68-1.93.05-.77.34-1.32.89-1.69.55-.37,1.29-.51,2.18-.44,1.02.07,1.85.35,2.44.82.66.52,1.22,1.13,1.68,1.83.27.41.42.64.53.78l.02.03c.08.1.1.11.11.11,0,0,.04-.02.06-.04.04-.03.08-.06.03-.16v-.05c-.03-1.75-.04-2.79-.06-3.01.05-.46-.69-.82-1.25-1.05-.9-.37-1.94-.61-3.09-.72-1.64-.13-3.02.21-4.12.99-1.11.79-1.7,1.83-1.78,3.1-.07,1.21.28,2.26,1.04,3.14.66.7,1.97,1.69,4,3.01,1.56,1.02,2.61,1.82,3.11,2.38.49.57.72,1.21.68,1.96-.02.36-.08.69-.17.95-.08.16-.12.26-.14.34-.54.98-1.7,1.38-3.46,1.22-.95-.07-1.8-.38-2.53-.91-.71-.51-1.41-1.37-2.08-2.54-.04-.05-.08-.1-.12-.15l-.19-.19v3.81l.03.03c.68.7,2.08,1.13,4.27,1.31Z"/>
  <path class="cls-4" d="M68.84,229.08l.1-.03v-.23h-4.75v.24h.1c.44.08.78.3,1.02.69.25.39.38.94.38,1.64l.03,7.96c0,4.09-1.72,6.07-5.26,6.07-2.05,0-3.54-.52-4.45-1.54-.91-1.03-1.38-2.68-1.38-4.91v-6.94c.04-1.04.18-1.78.44-2.23.25-.44.58-.68,1.02-.75l.1-.03v-.23h-5.65v.24h.1c.44.08.78.3,1.02.69.25.39.38.94.38,1.67l.03.22-.03,7.82c0,4.98,2.68,7.5,7.97,7.5,2.49,0,4.43-.7,5.75-2.08,1.29-1.34,1.87-3.27,1.72-5.72l-.03-7.75c0-.7.13-1.25.38-1.64.25-.38.58-.6,1.02-.67Z"/>
  <path class="cls-4" d="M83.69,238.24c.11-.04.23-.08.36-.12.13-.05.26-.1.38-.15.12-.05.22-.12.3-.19,2.29-1.32,3.44-2.91,3.44-4.74,0-1.4-.56-2.47-1.66-3.18-.89-.57-2.1-.89-3.61-.95l-6.92.07v.23h.1c.44.08.78.3,1.02.69.25.39.38.94.38,1.67l.03.22-.03,12.24c0,.18,0,.3-.03.43v.06c-.14,1.13-.59,1.72-1.37,1.83l-.1.03v.23l2.48-.03,2.97.03h.14v-.24h-.1c-.44-.08-.78-.3-1.02-.69-.25-.39-.38-.94-.38-1.65l-.08-5.38.11-.02c.4-.06.94-.08,1.65-.07.57-.04.98-.07,1.2-.11.22-.04.39-.08.51-.11l.25-.08ZM82.66,237s-.06.01-.08.02c-.51.13-1.05.2-1.63.2h-.97l.08-6.54c0-.1,0-.18.02-.25.03-.14.27-.37,1.55-.37,1.19,0,2.08.23,2.65.69l.05.04v.07l.06.03c.23.13.42.4.58.8.16.41.24.9.24,1.45l.03.12c0,1.12-.35,2.06-1.03,2.83-.38.43-.89.74-1.53.91Z"/>
  <path class="cls-4" d="M106.67,246.64c.24,0,.42,0,.55-.02l.33.04.59-3.79v-.07s-.19-.19-.19-.19l-.06.18c-.14.45-.46.85-.95,1.21-.51.36-1.3.7-2.37,1-.5.12-1.08.19-1.72.19-1.41,0-2.23-.02-2.45-.05-.92-.19-1.36-.65-1.36-1.42v-5.88h.12c2.21-.01,3.92.01,5.08.08h0c.69,0,1.24.13,1.63.38.38.25.6.58.67,1.03l.03.1h.23v-.12c-.04-2.19-.05-3.66-.03-4.38v-.12h-.24l-.02.1c-.07.45-.26.83-.57,1.15-.3.31-.81.47-1.5.47-2.96-.02-4.68-.03-5.15-.03-.14,0-.27-.03-.27-.21v-5.56c0-.12,0-.22.02-.28v-.07s.07-.03.07-.03c.09-.04.23-.06.42-.06,1.31,0,2.37,0,3.15.03.85.04,1.56.1,2.09.18.53.08.96.19,1.28.32.31.13.53.28.66.44.13.17.22.36.25.57l.03.1h.23l-.04-3.01-.04-.04c-.08-.07-.24-.14-.94-.09-.67.05-1.42.09-2.22.11h-.2c-1.1.04-2.36.05-3.73.05l-5.1.04v.23h.1c.44.08.78.3,1.02.69.25.39.38.94.38,1.67l.03.22-.03,12.21c0,.7-.13,1.25-.38,1.64-.25.38-.58.6-1.02.67l-.1.03v.23h.12c2.76-.02,4.82-.03,6.3-.03,2.13,0,3.91.04,5.3.11Z"/>
  <path class="cls-4" d="M120.28,238.56c1.2,1.44,2.73,3.36,4.54,5.7,1.32,1.56,2.9,2.35,4.68,2.35h.06l4.25-.03.02-.25-.82-.15c-3.21-.42-6.6-3.16-10.06-8.13l-.08-.12.13-.06c.09-.04.2-.09.33-.13,2.26-1.3,3.41-2.89,3.41-4.72,0-1.4-.56-2.47-1.66-3.18-.89-.57-2.1-.89-3.61-.95l-6.92.07v.23h.1c.44.08.78.3,1.02.69.25.39.38.94.38,1.67l.03.22-.03,12.24c0,.18,0,.3-.03.43v.06c-.14,1.13-.59,1.72-1.37,1.83l-.1.03v.23l2.48-.03,2.97.03h.14v-.24h-.1c-.44-.08-.78-.3-1.02-.69-.25-.39-.38-.94-.38-1.65l-.08-5.38.11-.02c.38-.06.89-.09,1.52-.1h.06l.04.04ZM119.53,237.22h-.97l.08-6.54c0-.1,0-.18.02-.25.03-.14.27-.37,1.55-.37s2.18.26,2.74.77c.57.48.86,1.3.86,2.42s-.34,2.06-1.02,2.83c-.67.76-1.77,1.15-3.25,1.15Z"/>
  <path class="cls-4" d="M157.58,229.16l.1-.03v-.23h-4.75v.24h.1c.44.08.78.3,1.02.69.25.39.38.94.38,1.64l.03,10.19-.23-.37-13.7-12.44h-.25v.12c.04.56.06,1.44.06,2.61l-.08,10.01v2.4c0,.7-.13,1.25-.38,1.64-.25.38-.58.6-1.02.67l-.1.03v.23h4.75v-.24h-.1c-.44-.08-.78-.3-1.02-.69-.25-.39-.38-.94-.38-1.64l.08-10.13.21.19c7.28,6.79,11.8,11.08,13.42,12.74l.03.03h.35l.03-.04c.13-.15.19-.4.19-.77-.05-1.22-.08-2.86-.08-4.87l-.05-9.68c0-.7.13-1.26.38-1.64.25-.38.58-.6,1.02-.67Z"/>
  <path class="cls-4" d="M173.73,228.44c-2.69,0-5.01.89-6.89,2.65-1.9,1.79-2.87,4.03-2.87,6.65s.96,4.98,2.85,6.68c1.83,1.67,4.16,2.51,6.92,2.51s4.93-.9,6.81-2.68c1.91-1.79,2.87-4.01,2.87-6.6s-.94-4.9-2.79-6.63c-1.83-1.72-4.15-2.59-6.9-2.59ZM178.75,243.44c-1.14,1.34-2.64,2.02-4.45,2.02-2.25,0-4.05-.72-5.37-2.14-1.36-1.48-2.04-3.54-2.04-6.11,0-2.14.59-3.91,1.76-5.24,1.16-1.33,2.66-2.01,4.45-2.01,2.19,0,3.97.71,5.29,2.12,1.39,1.48,2.1,3.52,2.1,6.06,0,2.18-.58,3.96-1.73,5.31Z"/>
  <path class="cls-4" d="M201.94,239.18c.5-1.15,1.24-2.82,2.22-4.95.96-2.1,1.59-3.32,1.86-3.65.27-.34.53-.69.76-1.03.22-.31.52-.5.91-.57l.2-.05-.2-.2h-3.42l-5.23,13.52s-.02.04-.02.05l-.11.2-.13-.23c-2.99-6.91-4.89-11.45-5.67-13.49l-.03-.08-4.42.04v.23h.1c.46.08.9.31,1.3.69.4.39.74.95,1.01,1.66,2.36,5.21,4.79,10.78,7.22,16.56l.11.27.1-.27c.96-2.56,2.12-5.49,3.43-8.72Z"/>
  <path class="cls-4" d="M229.97,246.32h-.1c-.47-.08-.9-.31-1.3-.69h0c-.4-.39-.74-.95-1.01-1.66-2.36-5.19-4.79-10.77-7.22-16.56l-.11-.27-.1.27c-.96,2.56-2.12,5.49-3.43,8.72-.51,1.19-1.24,2.8-2.22,4.95-.96,2.1-1.59,3.33-1.85,3.65-.26.33-.52.68-.77,1.03-.22.31-.52.5-.91.57l-.21.05.2.2h3.43l1.72-4.74h7.61l.03.08c.44,1.11,1.03,2.62,1.79,4.62l.03.08,4.42-.04v-.23ZM216.59,240.52l3.29-7.95,1.07,2.6c1.28,3.12,1.95,4.75,2.13,5.18l.07.17h-6.56Z"/>
  <path class="cls-4" d="M251.87,246.58c.19,0,.36,0,.52,0,2.77,0,5.09-.71,6.9-2.1,2.05-1.61,3.1-4.01,3.1-7.12,0-2.68-.99-4.82-2.93-6.36-1.87-1.48-4.38-2.23-7.46-2.23-2.07,0-4.66.05-7.72.14l-.11.02v.22h.1c.44.08.78.3,1.03.69.25.39.38.94.38,1.67l.03.22-.05,12.27c0,.7-.13,1.25-.38,1.64-.25.38-.58.6-1.02.67l-.1.03v.23h.11c4.37.02,6.91.03,7.61.03ZM248.35,230.82c0-.38.45-.62,1.35-.7h1.87c5.26,0,7.82,2.49,7.82,7.6s-2.51,7.52-7.68,7.52c-1.35,0-2.26-.14-2.71-.42-.43-.27-.64-.82-.64-1.65v-12.35Z"/>
  <path class="cls-4" d="M280.63,246.64c.24,0,.42,0,.55-.02l.33.04.59-3.79v-.07s-.19-.19-.19-.19l-.06.18c-.14.45-.46.85-.95,1.21-.51.36-1.3.7-2.37,1-.5.12-1.08.19-1.72.19-1.41,0-2.23-.02-2.45-.05-.92-.19-1.36-.65-1.36-1.42v-5.88h.12c2.21-.02,3.92.01,5.08.08h0c.69,0,1.25.13,1.63.38.38.25.6.58.67,1.03l.03.1h.23v-.12c-.04-2.24-.05-3.68-.03-4.38v-.12h-.24v.1c-.09.45-.27.83-.58,1.15-.3.31-.81.47-1.5.47-2.96-.02-4.68-.03-5.15-.03-.14,0-.27-.03-.27-.21v-5.56c0-.12,0-.22.02-.28v-.06s.07-.03.07-.03c.06-.03.18-.06.42-.06,1.31,0,2.37,0,3.15.03.85.04,1.56.1,2.09.18s.96.19,1.28.32c.31.13.53.28.66.44.13.17.21.35.25.57l.03.1h.23l-.04-3.01-.04-.04c-.08-.07-.25-.14-.94-.09-.67.05-1.42.09-2.22.11h-.2c-1.1.04-2.36.05-3.73.05l-5.1.04v.23h.1c.44.08.78.3,1.03.69.25.39.38.94.38,1.67l.02.22-.02,12.21c0,.7-.13,1.25-.38,1.64-.25.38-.58.6-1.02.67l-.1.03v.23h.12c2.76-.02,4.82-.03,6.3-.03,2.13,0,3.91.04,5.3.11Z"/>
  <path class="cls-4" d="M307.33,229.16l.1-.03v-.23h-4.75v.24h.1c.44.08.78.3,1.03.69.25.39.38.94.38,1.64l.03,10.06-.21-.21-13.72-12.47h-.25v.12c.04.57.06,1.45.06,2.61l-.08,10.01v2.4c0,.7-.13,1.25-.38,1.64-.25.38-.58.6-1.02.67l-.1.03v.23h4.75v-.24h-.1c-.44-.08-.78-.3-1.03-.69-.25-.39-.38-.94-.38-1.64l.08-10.13.21.19c7.29,6.8,11.81,11.09,13.42,12.74l.03.03h.35l.03-.04c.13-.15.19-.4.19-.77-.05-1.22-.08-2.86-.08-4.87l-.05-9.68c0-.7.13-1.26.38-1.64.25-.38.58-.6,1.03-.67Z"/>
  <path class="cls-4" d="M328.56,230.97c.55.39,1.24,1.2,2.04,2.4l.03.05h.28v-.11c.02-1.2.04-2.64.06-4.33v-.12s-10.12.06-10.12.06l-7.61-.03v.12c.02,1.69.04,3.13.06,4.33v.11h.29l.03-.05c.81-1.2,1.5-2.01,2.04-2.4.69-.49,1.89-.74,3.58-.74h1.42l.03.02c.14.09.15.2.15.27l.03,13.75c-.04.51-.25.94-.66,1.31-.41.38-.9.59-1.5.64l-.25.02.17.17c.12.11.32.16.64.14.63-.04,1.41-.07,2.31-.07s1.94.02,3.1.07c.52.03.68-.02.78-.1l.03-.04v-.05s-.02-.1-.07-.14l-.03-.03h-.03c-.34-.08-.65-.2-.91-.38-.26-.18-.48-.41-.66-.68-.25-.32-.38-.71-.38-1.2l.03-13.41c0-.07.01-.11.03-.14l.03-.05s.12-.09.41-.12h1.05c1.69,0,2.9.25,3.59.74Z"/>
  <path class="cls-4" d="M352.02,246.32h-.1c-.46-.08-.9-.31-1.3-.69h0c-.4-.39-.74-.95-1.01-1.66-2.36-5.19-4.79-10.77-7.22-16.56l-.11-.27-.1.27c-.96,2.55-2.11,5.48-3.43,8.72-.51,1.19-1.24,2.8-2.22,4.95-.96,2.1-1.59,3.33-1.85,3.65-.26.33-.52.68-.77,1.03-.22.31-.52.5-.91.57l-.21.05.2.2h3.43l1.72-4.74h7.61l.03.08c.44,1.11,1.03,2.62,1.79,4.62l.03.08,4.42-.04v-.23ZM338.64,240.52l3.29-7.95,1.07,2.6c1.28,3.12,1.95,4.75,2.13,5.18l.07.17h-6.56Z"/>
  <path class="cls-4" d="M366.64,246.64c.24,0,.42,0,.55-.02l.33.04.59-3.79v-.07s-.19-.19-.19-.19l-.06.18c-.14.45-.46.85-.95,1.21-.51.36-1.3.7-2.37,1-.5.12-1.08.19-1.72.19-1.41,0-2.23-.02-2.45-.05-.92-.19-1.36-.65-1.36-1.42v-11.52c.04-1.07.18-1.84.44-2.28.25-.43.58-.68,1.02-.75l.1-.03v-.23h-5.65v.24h.1c.44.08.78.3,1.03.69.25.39.38.94.38,1.67l.03,3.13.02.22-.02,9.13c0,.7-.13,1.25-.38,1.64-.25.38-.58.6-1.02.67l-.1.03v.23h.12c2.76-.02,4.82-.03,6.3-.03,2.13,0,3.91.04,5.3.11Z"/>
  <g>
    <path class="cls-2" d="M229.01,191.35c6.98-14.29,12.45-30.37,8.25-46.13-1.9-6.85-6.57-14.43-14.21-15.3-2.22-.23-4.53.34-6.56,1.4,0,0-1.38.7-1.38.7-4.57,2.56-9.93,4.23-15.09,3.53,4.1-.49,7.98-1.83,11.25-4.03.86-.58,3-2,3.83-2.55,2.36-1.58,5.17-2.56,8.1-2.5,7.07.09,12.81,5.48,15.87,11.43,8.7,17.61,1.52,39.03-10.07,53.44h0Z"/>
    <path class="cls-5" d="M218.73,155.29l1.93-.51-1.93-.51c-3.22-.85-5.73-3.37-6.59-6.59l-.51-1.93-.51,1.93c-.85,3.22-3.37,5.73-6.59,6.59l-1.93.51,1.93.51c3.22.85,5.73,3.37,6.59,6.59l.51,1.93.51-1.93c.85-3.22,3.37-5.73,6.59-6.59Z"/>
    <path class="cls-3" d="M206.78,180.85c-1.33-.62-2.69-1.19-4.04-1.77-2.93-1.25-5.85-2.54-8.42-4.41-1.97-1.44-3.74-3.26-4.68-5.51-1.12-2.68-.96-5.86.39-8.43.35-.66.77-1.26,1.24-1.82.02-.03.04-.05.07-.08.03-.03.05-.05.08-.08.61-.68,1.31-1.29,2.07-1.81,3.54-2.49,7.24-2.38,8.58-2.23-5.74-.82-9.66.94-9.66.94h0c-.42.2-.84.43-1.24.68-3.4,2.09-5.76,5.69-6.61,9.59-.61,2.79-.48,5.79.65,8.41,1.87,4.36,6.15,7.17,10.45,9.18,4.3,2.01,8.92,3.51,12.65,6.44,3.74,2.92,6.47,7.81,5.17,12.37-.79,2.77-2.98,5.01-5.57,6.3-7.61,3.77-16.5.54-23.05-3.9-2.84-1.93-5.45-4.22-7.69-6.83-.84-.97-1.64-1.97-2.42-2.99-1.16-1.56-2.29-3.18-3.21-4.89-7.55-13.83-13.06-30.52-8.39-46.08,2.07-6.64,6.98-13.8,14.48-14.18,2.42-.11,4.8.73,6.9,1.92,2.38,1.23,4.84,2.54,7.46,3.22,2.62.69,5.36.94,8.04.67-3.96-.41-7.7-1.64-11.02-3.73-1.64-1.05-4.29-2.94-6-3.79-10.98-5.13-20.8,4.6-23.94,14.56-5.22,16.04.37,33.47,9.41,46.95,4.68,6.97,10.54,13.43,17.83,17.72,3.47,2.04,7.3,3.52,11.31,3.99,5.91.7,12.26-.97,16.47-5.18,4.21-4.21,5.83-11.1,3.17-16.42-2.08-4.16-6.26-6.83-10.47-8.79Z"/>
  </g>
</svg>